<?xml version='1.0' encoding='utf-8'?>
<svg xmlns="http://www.w3.org/2000/svg" viewBox="0 0 2946.82 3043.92"> <defs> <style> .cls-1 { fill: #fff7f0; } .cls-1, .cls-10, .cls-2, .cls-3, .cls-4, .cls-5, .cls-6, .cls-7, .cls-8, .cls-9 { stroke: #000; stroke-width: 5px; } .cls-1, .cls-2, .cls-3, .cls-4, .cls-5, .cls-6, .cls-7, .cls-8, .cls-9 { stroke-miterlimit: 10; } .cls-2 { fill: #a6957e; } .cls-3 { fill: #beb1a1; } .cls-4 { fill: #e9b7b7; } .cls-5 { fill: #ece5ce; } .cls-6 { fill: #fec0bd; } .cls-7 { fill: #fff; } .cls-8 { fill: #ae9d87; } .cls-9 { fill: #a08e76; } .cls-10 { stroke-linecap: square; } </style> </defs> <title>BunnyForPixabay</title> <g id="Layer_2" data-name="Layer 2"> <g id="BunnyForPixabay"> <g> <g> <path class="cls-1" d="M2944.32,2347.33c0-156.72-127-283.77-283.76-283.77s-283.77,127.05-283.77,283.77,127.05,283.77,283.77,283.77S2944.32,2504.05,2944.32,2347.33Z"/> <path class="cls-2" d="M1555.87,2944.47c695.6,0,1092.84-217.87,1092.84-683.66s-245.25-642.75-761.82-642.75S401.33,1927.33,401.33,2260.81,860.27,2944.47,1555.87,2944.47Z"/> <path class="cls-1" d="M1239.57,1767.35C850,1903,468,2125.28,458.73,2327.86c64.18,142.86,161,256.17,287.83,345.63,6.43,5.23,14.33,7.14,22.34,7.91s16.23-.76,24.57-3.43c295.59-133.43,482.08-393.89,546.28-836.87a54.24,54.24,0,0,0-10.24-37.93c-8.17-11.17-20.21-18.09-32.79-19.29-18.59-2.2-37.74-8.07-57.15-16.53Z"/> <path class="cls-3" d="M998.08,998.43c6.21,10.26,12.36,20.06,18.37,29.38,6.4,9.91,28.27-7.33,33.38,0a1.15,1.15,0,0,1,.1.75c.17-.3.35-.61.52-.93A531.27,531.27,0,0,0,998.08,998.43Zm355.36,683c.15.17.31.33.48.5l.08-.08C1353.82,1681.66,1353.64,1681.51,1353.44,1681.38Zm-355.36-683c6.21,10.26,12.36,20.06,18.37,29.38,6.4,9.91,28.27-7.33,33.38,0a1.15,1.15,0,0,1,.1.75c.17-.3.35-.61.52-.93A531.27,531.27,0,0,0,998.08,998.43ZM292,1028.56c.22,3.15,5.28,14,8.76,22q3.7-2.92,7.52-5.8C301.63,1041,296.8,1037,292,1028.56Z"/> <path class="cls-3" d="M1410.5,1817.18c-1.68,28.41-2.55,38.94-4.81,52.81-7.43,45.49-28.2,83.5-79,137.13-55,58-160.65,134.41-273,195.09-132,71.34-260.13,115.08-363.1,118.54-175.35-9.61-305.1-67.14-558.36-248.39-31.23-22.35-63-60.73-87-106C18.94,1917,3.5,1862.91,2.54,1811.33c-.72-38.24,9.52-75,26-107.88,3.23-6.46,6.46-12.24,9.51-17.22.6-1,1.16-1.89,1.69-2.7.24-.3.45-.6.69-.92l1.75-1.88c5.69-6.1,31.71-29,36.06-33.18,26.11-25,44.14-51.58,56.68-89.54,15.92-48.2,20.75-111,12.56-193-2.72-27.17.78-56.85,9.77-88.45C168.75,1236,188.68,1194,214,1152.72c10.53-17.14,21.29-33,31.68-47.16,3.63-5,7-9.34,9.91-13.12l2.19-2.77c1.41-1.49,2.79-3,4.14-4.54,1.68-1.77,3.63-3.73,5.87-5.92,7.47-7.29,16.44-15.32,26.86-23.78,2-1.63,4.05-3.27,6.11-4.88q3.7-2.92,7.52-5.8c-6.68-3.74-11.51-7.79-16.28-16.19-5.54-9.74-11-25.38-19.23-53.23-86.67-293.58-53.49-384.7,37.31-595.67,129.15-300.14,196-371,223-373.34.22-.07.42-.14.63-.19a100.14,100.14,0,0,1,22.09-3.54c28.61-1.24,51.83,10.71,65.37,41.32,7.53,17,13,40.87,16.66,70.17,1.93,15.51,3.31,32.3,4.21,50.05,1.15,23.19,1.44,46.84,1,69.69-.11,8-.33,15.32-.56,21.82q-.14,3.42-.25,6c-.05,1-.09,1.73-.1,2.1l.08,630.74v.84c0,.69,0,1.51-.07,2.44-.11,2.72-.38,5.83-.81,9.31a164.07,164.07,0,0,1-4.67,23.34q19.34-.9,39.24-.65,14.82.18,29.25.8a165.06,165.06,0,0,1-4.73-23.49c-.41-3.48-.68-6.59-.8-9.31-.05-.93-.06-1.75-.06-2.44v-.84l.08-630.74c0-.37,0-1.07-.1-2.1-.08-1.72-.17-3.72-.25-6-.25-6.5-.45-13.82-.57-21.82-.38-22.85-.1-46.5,1-69.69.9-17.75,2.28-34.54,4.22-50,3.63-29.3,9.12-53.15,16.65-70.17C734.28,13.3,757.49,1.35,786.12,2.59A100.05,100.05,0,0,1,808.2,6.13c.22,0,.42.12.64.19,27,2.31,93.85,73.2,223,373.34,90.79,211,124,302.09,37.31,595.67-8,27-13.34,42.49-18.72,52.3a531.27,531.27,0,0,0-52.37-29.2c6.21,10.26,12.36,20.06,18.37,29.38,6.4,9.91,28.27-7.33,33.38,0a1.15,1.15,0,0,1,.1.75c.17-.3.35-.61.52-.93,35.18,22.4,63.82,46.95,86.08,71.94a485.75,485.75,0,0,1,40.84,52c21.72,32.3,35.76,63.66,44.67,98.57,7.76,30.42,11.76,62.91,14.44,110.78.62,11,1.15,22.54,1.87,38.94.19,4.52.86,20.84.88,20.84.36,8.59.65,15.24,1,21.87,2.83,62.16,17.65,113.13,41.89,155.25a275.61,275.61,0,0,0,40.15,53.56c5.88,6.18,17.88,17.54,24.32,23.64a55,55,0,0,0,5.13,4.91l2,2.12.2-.2c1.6,1.7,3.28,3.56,5,5.55a241.62,241.62,0,0,1,25.5,34.92C1402.61,1752.65,1412.42,1784.61,1410.5,1817.18Z"/> <path class="cls-4" d="M813.21,13.84c-3.2,35.54-5,56.65-6.79,79.56-5,65.46-8.38,132.24-9.23,196.41-.62,46.7.14,90.29,2.46,129.93,2.7,46.09,7.47,86.17,14.51,119.32q4.59,21.59,9.88,43c30.69,124.43,77.37,240.66,133.24,345.49,19.55,36.69,38.86,69.33,57.06,97.52,6.37,9.86,12.14,18.46,17.22,25.74,1.77,2.55,3.33,4.75,4.66,6.6l65.85-313.28-.06.58q0-.27,0-1c0-.88,0-1.93-.09-3.13-.13-3.45-.31-7.49-.57-12.08-.74-13.13-1.92-28.05-3.65-44.49A1081.51,1081.51,0,0,0,1072,537.14c-13.2-53.12-30.34-103.7-51.89-150.41-16.06-34.81-35-72.7-56.41-113C931.7,213.43,896,150.71,859.23,89.23c-12.86-21.52-24.92-41.35-35.84-59Q817.65,20.92,813.21,13.84Z"/> <path class="cls-4" d="M528.75,13.84c3.2,35.54,5,56.65,6.79,79.56,5,65.46,8.39,132.24,9.24,196.41.62,46.7-.14,90.29-2.46,129.93-2.7,46.09-7.48,86.17-14.52,119.32q-4.59,21.59-9.88,43c-30.69,124.43-77.36,240.66-133.24,345.49-19.55,36.69-38.85,69.33-57.06,97.52-6.37,9.86-12.14,18.46-17.22,25.74-1.77,2.55-3.33,4.75-4.66,6.6L239.9,744.16l.06.58c0-.18,0-.53,0-1,0-.88.05-1.93.1-3.13.12-3.45.3-7.49.56-12.08.74-13.13,1.93-28.05,3.66-44.49A1081.43,1081.43,0,0,1,270,537.14c13.2-53.12,30.34-103.7,51.89-150.41,16.07-34.81,35-72.7,56.41-113,31.95-60.26,67.69-123,104.42-184.46,12.86-21.52,24.93-41.35,35.85-59C522.4,24,525.81,18.55,528.75,13.84Z"/> <path class="cls-5" d="M982.16,1893.73c-145.85-146.87-162.56-473.3-276.46-473.3s-114.09,243.65-273.89,444.92S560.2,1981.49,705.7,1981.49,1128,2040.6,982.16,1893.73Z"/> <path class="cls-5" d="M947,1975.67H451.24c0,130.68,77.12,244.59,250.25,244.59S947,2123.47,947,1975.67Z"/> <path class="cls-6" d="M697.78,2125.3l6.94,2.43c29.13,2.74,52.93-3.69,68.8-7.66,2.33-.54,2.46-3.55-.13-4-34.75-4.65-52.94-48.56-71.82-48.56a12.09,12.09,0,0,1-7,0c-18.88,0-37.07,43.91-71.81,48.56-2.6.41-2.46,3.42-.14,4,15.87,4,39.67,10.4,68.81,7.66l6.3-2.43Z"/> <path class="cls-7" d="M703.39,2103.67c6.83,11.47,37.67,5.85,33.11-15.92s-15.63-42.46-12-57.57c2.23-9.39-25.78-4.26-25.78-4.26S694.52,2080.23,703.39,2103.67Zm-12.25,0c10.4-18.52,4.29-77.75,4.29-77.75s-26-5.13-23.8,4.26c3.58,15.11-8.47,40.44-12.06,57.57S681.56,2112.48,691.14,2103.67Z"/> <path class="cls-1" d="M797.58,1868.05C696.19,1898.11,695,1995.27,695,2005.72l-.91,93c25.66,37.71,115.76,65.48,174.08,65.48,4.8,0,8-.11,8.56-.16,96.21-9.22,158.19-100.4,158.19-173.09s-87.22-139.73-216.74-126.75C818.16,1864.25,804.19,1866.09,797.58,1868.05Zm-209.43,0c-9.5-2.12-18.68-4.43-20.77-4.64-129.52-13-197.13,56.47-205.42,108.94s61.31,181.69,157.53,190.9a67,67,0,0,0,9.59,1c58.32,0,140.83-27,172.14-65.48a827.44,827.44,0,0,1,0-92.21C702.72,1926.91,652,1882.32,588.15,1868.05Z"/> <g> <path class="cls-8" d="M2496.19,2615.48c63.65-264.93-99.51-531.29-364.43-594.95s-531.29,99.51-595,364.43,140.8,662,364.43,594.95S2432.53,2880.4,2496.19,2615.48Z"/> <path class="cls-3" d="M1533,2767.28c136-42.12,88.32,104.2,550.84,45,261-33.41,424.3-140.69,290.59,0S1917.16,3024,1754,3038.26c-200.24,17.5-358.64-40.17-358.64-111.08S1397,2809.4,1533,2767.28Z"/> </g> <g> <path class="cls-9" d="M699.41,2911.86c-137.26,0-257.9-26.35-257.9-94.69S482.57,2686,619.84,2686s286.27,27.41,286.27,131.15S836.68,2911.86,699.41,2911.86Z"/> <path class="cls-8" d="M732.36,2681.17C660.91,2703.93,620,2758.64,620,2826.86c0,90.45,68.86,103.84,191.52,98.9,14.52-.58,28.68-.58,42.33-1.71l233.47-39c-38.43-30-51.91-19.8-147.76-115.3-77.89-77.6-122.8-88.56-207.23-88.56Z"/> </g> <path class="cls-6" d="M698.1,2025.31c16.36,0,20.38,9.26,32.11,9.26,22.7,0,45.09-36.13,45.09-70.71s-18.84-65.63-41.54-65.63c-24.08,0-25,18.07-35.66,18.07s-11.74-18.07-35.67-18.07c-22.7,0-41.54,31-41.54,65.63s22.39,70.71,45.09,70.71C677.72,2034.57,681.73,2025.31,698.1,2025.31Z"/> </g> <path class="cls-5" d="M287.53,1628.74c-45-17.3-123.07-6.58-155.9,11.27-61.42,33.41-64.17,106.78-45.3,145.26s72.93,66.16,115.86,38.49c24.88-16,81.87-66.86,108-108.91s54.28-86.11,54.28-86.11,71.26-129.55,71.26-211-37.69-165.3-148.21-165.3S133.27,1353.12,154,1475.86c7.79,46.19,80.66,118.38,133.57,152.88Z"/> <path class="cls-5" d="M1098.45,1665.15c45-17.31,123.07-6.59,155.9,11.27,61.42,33.4,64.17,106.77,45.31,145.26s-72.94,66.15-115.87,38.48c-24.88-16-81.87-66.85-108-108.9s-54.28-86.11-54.28-86.11-71.26-129.55-71.26-211,37.69-165.31,148.21-165.31,154.27,100.68,133.57,223.43c-7.79,46.19-80.66,118.37-133.57,152.88Z"/> <g> <path class="cls-10" d="M334.15,1591.9c0-63.44-27-114.87-60.42-114.87s-60.43,51.43-60.43,114.87,27,114.88,60.43,114.88S334.15,1655.35,334.15,1591.9Z"/> <path class="cls-7" d="M261.56,1546.9c6.95-22.75,21.82-39.6,7.15-44.08s-36.4,10.13-43.35,32.89-2.88,44.17,9.09,47.82S254.61,1569.66,261.56,1546.9Z"/> <path class="cls-7" d="M320.38,1656.82c-20.56,22.25-29.34,30.68-53,38.53,8,6.07,24.91,4.55,34.35-5.35A74.53,74.53,0,0,0,320.38,1656.82Z"/> </g> <g> <path class="cls-10" d="M1165.91,1598.36c0-63.44-27.05-114.87-60.42-114.87s-60.43,51.43-60.43,114.87,27,114.88,60.43,114.88S1165.91,1661.81,1165.91,1598.36Z"/> <path class="cls-7" d="M1093.32,1553.36c7-22.75,21.82-39.6,7.15-44.08s-36.4,10.13-43.35,32.89-2.88,44.17,9.09,47.82S1086.37,1576.12,1093.32,1553.36Z"/> <path class="cls-7" d="M1152.14,1663.28c-20.56,22.25-29.34,30.68-53,38.53,8,6.07,24.91,4.55,34.35-5.35A74.47,74.47,0,0,0,1152.14,1663.28Z"/> </g> </g> </g> </g> </svg>