<?xml version="1.0" encoding="UTF-8"?>
<svg width="78.046mm" height="97.758mm" version="1.1" viewBox="0 0 276.5415 346.38741" xmlns="http://www.w3.org/2000/svg">
 <g transform="translate(-276.01 -376.31)">
  <g transform="matrix(.99346 .11414 -.11414 .99346 -438.49 95.632)">
   <ellipse transform="matrix(3.156 2.6238 -2.7588 3.0016 807.65 467.86)" cx="2.5" cy="-31.367" rx="33.333" ry="32.5" fill="#dbbb81" fill-rule="evenodd" stroke="#a3a0a0" stroke-width=".24462"/>
   <path d="m800.01 466.17c-14.379-15.226-28.608-40.606-31.724-56.587-0.64907-3.3288-0.16036-3.2016 1.3501 0.3516 1.9041 4.4793 8.0785 14.52 13.115 21.327 7.1936 9.7228 12.472 15.249 22.646 23.707 10.157 8.4445 16.643 12.698 27.652 18.134 48.366 23.883 106.39 19.668 147.83-10.74 27.79-20.393 45.078-48.058 50.844-81.365 1.6238-9.3788 1.9854-19.258 1.1255-30.748-0.4302-5.7492-0.6532-10.346-0.4955-10.215 0.5801 0.4823 3.4594 9.9352 4.7453 15.58 11.441 50.216-9.1423 102.09-52.054 131.18-21.846 14.811-46.205 22.917-72.189 24.023-43.414 1.8468-84.159-14.274-112.84-44.647z" fill-rule="evenodd" opacity=".15" stroke="#a3a0a0"/>
   <ellipse transform="matrix(.89066 0 0 .88987 854.98 531.42)" cx="2.5" cy="-31.367" rx="33.333" ry="32.5" fill="#ecd3a3" fill-rule="evenodd"/>
   <ellipse transform="matrix(.89066 0 0 .88987 973.01 517.93)" cx="2.5" cy="-31.367" rx="33.333" ry="32.5" fill="#ecd3a3" fill-rule="evenodd"/>
   <path d="m790.05 193.3c-0.29873 0.13261-0.60979 0.2789-0.8995 0.43678-18.54 10.107-11.652 67.669 8.5598 104.74 19.969 36.628 50.863 58.407 69.481 49.175 1.5413-0.40602 3.0227-0.97597 4.4268-1.7415 18.54-10.107 17.186-48.355-3.0238-85.427-20.21-37.072-57.16-78.252-75.7-68.145-0.0701 0.0378-0.13644 0.0777-0.20571 0.11708-0.91758 0.18431-1.789 0.46173-2.6391 0.84071z" fill="#ecd3a3"/>
   <path d="m794.91 193.75c-0.29875 0.13262-0.58274 0.26767-0.87243 0.42554-0.068 0.0369-0.1384 0.0788-0.20571 0.11707 19.384-3.8937 53.139 34.591 72.134 69.434 20.21 37.072 21.552 75.293 3.0125 85.4-0.23657 0.12901-0.46887 0.23937-0.70963 0.35799 1.554-0.4064 3.0774-0.9655 4.4923-1.7368 18.54-10.107 17.159-48.344-3.0509-85.416-19.895-36.492-55.993-76.967-74.8-68.582z" opacity=".15"/>
   <path d="m813.05 306.61c14.16 25.974 37.604 42.332 47.08 37.166 9.4759-5.166 5.6781-30.41-8.4826-56.384-14.16-25.974-38.884-58.846-43.562-49.12-8.3274 17.313-9.1964 42.364 4.9642 68.338z" fill="#ededed"/>
   <path d="m941.4 176.09c-5.6111 0.96789-11.452 4.36-17.047 9.65-9.1051 6.9311-17.87 19.049-24.209 34.446-15.332 37.244-10.742 79.403 3.6721 107.98 10.092 20.008 24.945 22.551 38.204 9.5034 7.1593-5.2243 14.061-14.873 19.747-28.684 15.333-37.24 16.065-90.595 1.6515-119.17-5.6304-11.162-13.538-15.187-22.019-13.724z" fill="#ecd3a3"/>
   <path d="m924.67 186c-9.0214 6.96-17.679 19.027-23.964 34.293-15.332 37.245-10.742 79.403 3.6721 107.98 10.099 20.022 24.963 22.55 38.229 9.4702-12.152 8.8841-25.086 5.0073-34.16-12.982-14.414-28.576-19.004-70.734-3.6721-107.98 5.3325-12.952 12.374-23.599 19.895-30.781z" opacity=".15"/>
   <path d="m914.89 263.5c-4.8254 33.216 1.7683 76.186 12.449 77.738 10.68 1.5518 23.25-24.118 28.076-57.334 4.8254-33.216 0.0797-61.401-10.601-62.953-10.68-1.5518-25.099 9.3325-29.924 42.549z" fill="#ededed"/>
   <path d="m937.13 326.03c-7.4331 0.064-15.489 0.8083-24.25 2.0938-71.677 10.516-108.04 31.544-117.81 86.75-2.8281 15.967-3.3998 29.6-1.625 41.062 2.807 47.908 40.178 63.198 117.66 56.781 72.972-6.0434 120.34-38.429 112.25-84.875-0.2053-5.4862-1.219-11.186-3.0937-17.094-20.705-65.255-42.986-85.064-83.125-84.719z" fill="#ecd3a3"/>
   <path d="m1021.6 429.89c1.5162 42.099-43.63 71.126-111.05 76.812-71.417 6.0233-108.13-7.0882-114.64-48.344 2.9387 47.59 39.605 62.774 115.47 56.375 71.626-6.041 118.12-38.428 110.22-84.844z" opacity=".15" stroke="#a3a0a0"/>
   <path d="m885.11 437.67c0.91211 8.5869 11.527 15.407 22.181 14.275 10.654-1.1317 17.313-9.787 16.401-18.374-0.9121-8.5869-10.582-8.1488-21.236-7.0171s-18.257 2.5284-17.345 11.116z" fill="#403926" stroke="#a3a0a0"/>
   <path d="m952.86 463.09c0.8096 7.6215 7.826 13.124 15.671 12.291 7.8456-0.83336 13.55-7.6873 12.74-15.309-0.8095-7.6215-7.3339-12.356-15.18-11.522-7.8456 0.83336-14.042 6.9188-13.232 14.541z" fill="#ededed"/>
   <path d="m849.24 471.63c0.79715 7.6215 7.706 13.124 15.431 12.291 7.7254-0.83336 13.342-7.6873 12.544-15.308-0.79714-7.6215-7.2215-12.356-14.947-11.523-7.7254 0.83338-13.826 6.9188-13.029 14.54z" fill="#ededed"/>
   <g transform="matrix(1.185 -.24 .21159 1.3442 180.12 -18.61)" fill="none" stroke="#000" stroke-linecap="round" stroke-linejoin="round" stroke-width="1.56">
    <path d="m536.89 457.14c-5.1158 13.322-25.624 16.541-22.353-3.4514"/>
    <path d="m536.53 457.14c5.1158 13.322 25.624 16.541 22.353-3.4514"/>
   </g>
   <ellipse transform="matrix(-.68338 .07259 .075296 .70887 1081.8 114.62)" cx="407.24" cy="398.94" rx="32.613" ry="31.748" fill="#fff"/>
   <ellipse transform="matrix(-.50273 .0534 .059581 .56092 1015.4 184.02)" cx="407.24" cy="398.94" rx="32.613" ry="31.748"/>
   <ellipse transform="matrix(-.15494 .016458 .017072 .16072 895.78 352.27)" cx="407.24" cy="398.94" rx="32.613" ry="31.748" fill="#fff"/>
   <ellipse transform="matrix(-.68338 .07259 .075296 .70887 1227.2 101.13)" cx="407.24" cy="398.94" rx="32.613" ry="31.748" fill="#fff"/>
   <ellipse transform="matrix(-.48407 .053345 .054828 .53553 1152.3 180.65)" cx="407.24" cy="398.94" rx="32.613" ry="31.748"/>
   <ellipse transform="matrix(-.15494 .016458 .017072 .16072 1037.4 342.27)" cx="407.24" cy="398.94" rx="32.613" ry="31.748" fill="#fff"/>
   <g transform="matrix(.79401 0 0 .79401 207.04 87.51)" fill="#403926" fill-rule="evenodd" stroke="#423b2e" stroke-linecap="round" stroke-linejoin="round" stroke-width="2.5189">
    <path d="m1010.1 432.76 40.833-15.833"/>
    <path transform="translate(763.45 160.56)" d="m249.17 274.03 40-4.1667"/>
    <path d="m1010.6 438.09 41.667 10"/>
   </g>
   <g transform="matrix(-.79401 0 0 -.79401 1611.5 806.34)" fill="#403926" fill-rule="evenodd" stroke="#423b2e" stroke-linecap="round" stroke-linejoin="round" stroke-width="2.5189">
    <path d="m1010.1 432.76 40.833-15.833"/>
    <path transform="translate(763.45 160.56)" d="m249.17 274.03 40-4.1667"/>
    <path d="m1010.6 438.09 41.667 10"/>
   </g>
  </g>
 </g>
</svg>
