<?xml version="1.0" encoding="UTF-8"?>
<svg width="80.844mm" height="100.57mm" version="1.1" viewBox="0 0 286.45434 356.3631" xmlns="http://www.w3.org/2000/svg">
 <g transform="translate(770.07 -507.37)">
  <g transform="translate(-1893.2 332.81)">
   <ellipse transform="matrix(2.847 2.9562 -3.0734 2.6786 1157.9 461.09)" cx="2.5" cy="-31.367" rx="33.333" ry="32.5" fill="#d89385" fill-rule="evenodd" stroke="#a3a0a0" stroke-width=".24462"/>
   <path d="m1150.5 458.56c-12.61-16.721-23.949-43.516-25.282-59.744-0.2775-3.3802 0.1942-3.1997 1.3031 0.49853 1.3978 4.6621 6.4258 15.323 10.68 22.645 6.0761 10.458 10.712 16.533 19.89 26.062 9.1628 9.5144 15.14 14.458 25.481 21.076 45.433 29.078 103.57 31.295 148.11 5.6492 29.872-17.2 50.109-42.787 59.517-75.253 2.6495-9.1421 4.0997-18.921 4.5138-30.436 0.2073-5.7615 0.4932-10.355 0.6355-10.207 0.5233 0.5434 2.3412 10.256 2.996 16.008 5.8259 51.172-20.359 100.45-66.221 124.63-23.348 12.309-48.453 17.675-74.4 15.905-43.352-2.9582-82.068-23.48-107.22-56.834z" fill-rule="evenodd" opacity=".15" stroke="#a3a0a0"/>
   <ellipse transform="matrix(.88522 .098347 -.098259 .88443 1197.9 529.49)" cx="2.5" cy="-31.367" rx="33.333" ry="32.5" fill="#e4ada2" fill-rule="evenodd"/>
   <ellipse transform="matrix(.88522 .098347 -.098259 .88443 1316.7 529.12)" cx="2.5" cy="-31.367" rx="33.333" ry="32.5" fill="#e4ada2" fill-rule="evenodd"/>
   <path d="m1192.8 175.07c-0.3352 0.0385-0.6926 0.0828-1.0226 0.14733-21.119 4.1265-23.308 60.456-15.052 102.68 8.2553 42.229 32.063 73.103 53.181 68.975 0.9534-0.18638 1.8786-0.475 2.7877-0.79508 2.3634 0.26485 4.7024 0.18124 6.9942-0.35923 20.944-4.9399 29.922-42.905 20.046-84.785-9.4879-40.234-41.162-86.409-62.208-85.599-1.622-0.33877-3.1965-0.44309-4.7256-0.26748z" fill="#e4ada2"/>
   <path d="m1198 174.57c20.778 4.3236 48.156 49.044 55.696 87.612 7.8803 40.312-1.2788 76.345-20.496 83.13 2.3635 0.26484 4.7025 0.18125 6.9942-0.35922 20.944-4.9399 29.922-42.905 20.046-84.785-9.488-40.234-41.193-86.406-62.239-85.597z" opacity=".15"/>
   <path d="m1239.5 276.32c5.7839 29.588-1.9702 57.67-12.764 59.78-10.794 2.11-24.233-20.165-30.017-49.753-5.7839-29.588-7.7672-71.458 2.2288-66.87 17.794 8.1665 34.769 27.255 40.552 56.844z" fill="#e7d3de"/>
   <path d="m1408.2 229.16c1.3342 3.7957 1.6921 8.4484 0.868 13.993-4.7959 32.261-36.779 76.243-71.435 98.235-21.633 13.728-39.174 15.644-48.149 7.2945-0.01-0.01-0.03-9e-3 -0.04-0.0186-8.0426-4.1821-11.858-13.856-9.6802-28.503 4.7959-32.261 25.734-70.066 60.386-92.056 24.022-15.245 48.341-18.895 59.39-8.9513 4.0524 2.1324 7.0593 5.4543 8.6594 10.006z" fill="#e4ada2"/>
   <path d="m1327.3 270.85c-18.414 28.826-45.13 64.437-37.152 72.007 7.9795 7.5691 33.532-6.4131 57.072-31.23 23.54-24.817 39.932-76.312 31.952-83.881-7.9796-7.5692-35.251 17.082-51.874 43.105z" fill="#e7d3de"/>
   <path d="m1399.5 218.75c-12.232-6.4202-33.983-2.0756-55.526 11.596-34.652 21.99-55.631 59.776-60.426 92.038-1.8076 12.159 0.5378 20.916 5.976 25.934-8.1177-4.1506-11.959-13.856-9.7712-28.57 4.7959-32.261 25.734-70.066 60.386-92.056 24.017-15.241 48.308-18.876 59.361-8.9406z" opacity=".15"/>
   <path d="m1220.2 334.42c7.3946-0.75714 15.484-0.90695 24.333-0.59672 72.4 2.5371 110.86 19.421 126.67 73.211 4.5739 15.557 6.6473 29.043 6.1491 40.632 2.5001 47.925-32.954 67.248-110.67 69.426-73.193 2.0511-123.85-24.907-120.94-71.961-0.4017-5.4754-0.024-11.252 1.1873-17.331 13.373-67.143 33.331-89.291 73.262-93.379z" fill="#e4ada2"/>
   <path d="m1147.5 444.99c3.1417 42.009 51.217 65.874 118.85 64.081 71.645-1.8993 106.69-18.985 108.6-60.707 2.3343 47.624-32.431 66.763-108.54 68.78-71.855 1.9049-121.64-25.15-118.92-72.154z" opacity=".15" stroke="#a3a0a0"/>
   <g transform="matrix(-.78915 .087674 .087674 .78915 1919.5 16.747)" fill="#403926" fill-rule="evenodd" stroke="#423b2e" stroke-linecap="round" stroke-linejoin="round" stroke-width="2.5189">
    <path d="m1010.1 432.76 40.833-15.833"/>
    <path transform="translate(763.45 160.56)" d="m249.17 274.03 40-4.1667"/>
    <path d="m1010.6 438.09 41.667 10"/>
   </g>
   <g transform="matrix(.78915 -.087674 -.087674 -.78915 602.91 886.27)" fill="#403926" fill-rule="evenodd" stroke="#423b2e" stroke-linecap="round" stroke-linejoin="round" stroke-width="2.5189">
    <path d="m1010.1 432.76 40.833-15.833"/>
    <path transform="translate(763.45 160.56)" d="m249.17 274.03 40-4.1667"/>
    <path d="m1010.6 438.09 41.667 10"/>
   </g>
   <path d="m1238.2 439.63c-0.042 8.6351 9.7554 16.586 20.469 16.637 10.714 0.0516 18.288-7.8154 18.329-16.451 0.042-8.6351-9.6177-9.2674-20.331-9.3191-10.714-0.0516-18.425 0.49692-18.467 9.1324z" fill="#403926" stroke="#a3a0a0"/>
   <path d="m1302.7 472.39c-0.037 7.6643 6.329 13.908 14.218 13.947 7.8896 0.038 14.316-6.1442 14.353-13.809 0.037-7.6643-5.9247-13.09-13.815-13.128-7.8897-0.038-14.72 5.326-14.756 12.991z" fill="#e7d3de"/>
   <path d="m1198.8 469.43c-0.049 7.663 6.2097 13.895 13.98 13.92 7.7702 0.0248 14.109-6.1671 14.158-13.83s-5.813-13.078-13.583-13.103c-7.7702-0.0247-14.506 5.3498-14.555 13.012z" fill="#e7d3de"/>
   <g transform="matrix(1.2043 -.10768 .061872 1.3593 587.88 -91.696)" fill="none" stroke="#000" stroke-linecap="round" stroke-linejoin="round" stroke-width="1.56">
    <path d="m536.89 457.14c-5.1158 13.322-25.624 16.541-22.353-3.4514"/>
    <path d="m536.53 457.14c5.1158 13.322 25.624 16.541 22.353-3.4514"/>
   </g>
   <g transform="matrix(.99389 .11042 -.11042 .99389 406.8 -93.089)">
    <ellipse transform="matrix(-.68338 .07259 .075296 .70887 1081.8 114.62)" cx="407.24" cy="398.94" rx="32.613" ry="31.748" fill="#fff"/>
    <ellipse transform="matrix(-.50273 .0534 .059581 .56092 1015.4 184.02)" cx="407.24" cy="398.94" rx="32.613" ry="31.748"/>
    <ellipse transform="matrix(-.15494 .016458 .017072 .16072 895.78 352.27)" cx="407.24" cy="398.94" rx="32.613" ry="31.748" fill="#fff"/>
   </g>
   <g transform="matrix(.99389 .11042 -.11042 .99389 406.8 -93.089)">
    <ellipse transform="matrix(-.68338 .07259 .075296 .70887 1227.2 101.13)" cx="407.24" cy="398.94" rx="32.613" ry="31.748" fill="#fff"/>
    <ellipse transform="matrix(-.48407 .053345 .054828 .53553 1152.3 180.65)" cx="407.24" cy="398.94" rx="32.613" ry="31.748"/>
    <ellipse transform="matrix(-.15494 .016458 .017072 .16072 1037.4 342.27)" cx="407.24" cy="398.94" rx="32.613" ry="31.748" fill="#fff"/>
   </g>
  </g>
 </g>
</svg>
